<mxfile host="app.diagrams.net" modified="2023-04-06T06:44:49.714Z" agent="Mozilla/5.0 (Windows NT 10.0; Win64; x64) AppleWebKit/537.36 (KHTML, like Gecko) Chrome/111.0.0.0 Safari/537.36" etag="yL6XsNzXqcJShce2XVJU" version="21.1.4" type="github" pages="2">
  <diagram name="Page-1" id="74e2e168-ea6b-b213-b513-2b3c1d86103e">
    <mxGraphModel dx="2074" dy="1134" grid="1" gridSize="10" guides="1" tooltips="1" connect="1" arrows="1" fold="1" page="1" pageScale="1" pageWidth="1100" pageHeight="850" background="none" math="0" shadow="0">
      <root>
        <mxCell id="0" />
        <mxCell id="1" parent="0" />
        <mxCell id="77e6c97f196da883-1" value="Pool" style="swimlane;html=1;childLayout=stackLayout;startSize=20;rounded=0;shadow=0;labelBackgroundColor=none;strokeWidth=1;fontFamily=Verdana;fontSize=8;align=center;fillColor=#21C0A5;fontColor=#5C5C5C;strokeColor=#006658;" parent="1" vertex="1">
          <mxGeometry x="70" y="40" width="960" height="760" as="geometry" />
        </mxCell>
        <mxCell id="77e6c97f196da883-2" value="前端" style="swimlane;html=1;startSize=20;fillColor=#21C0A5;fontColor=#5C5C5C;strokeColor=#006658;labelBackgroundColor=none;" parent="77e6c97f196da883-1" vertex="1">
          <mxGeometry y="20" width="160" height="740" as="geometry" />
        </mxCell>
        <mxCell id="77e6c97f196da883-8" value="首单完成" style="rounded=1;whiteSpace=wrap;html=1;shadow=0;labelBackgroundColor=none;strokeWidth=1;fontFamily=Verdana;fontSize=8;align=center;fillColor=#21C0A5;strokeColor=#006658;fontColor=#5C5C5C;" parent="77e6c97f196da883-2" vertex="1">
          <mxGeometry x="20" y="65" width="100" height="60" as="geometry" />
        </mxCell>
        <mxCell id="77e6c97f196da883-26" style="edgeStyle=orthogonalEdgeStyle;rounded=1;html=1;labelBackgroundColor=none;startArrow=none;startFill=0;startSize=5;endArrow=classicThin;endFill=1;endSize=5;jettySize=auto;orthogonalLoop=1;strokeWidth=1;fontFamily=Verdana;fontSize=8;entryX=0;entryY=0.5;entryDx=0;entryDy=0;strokeColor=#006658;fontColor=default;" parent="77e6c97f196da883-1" source="77e6c97f196da883-8" target="4tRq5iD_RLKed55LPY2R-1" edge="1">
          <mxGeometry relative="1" as="geometry">
            <mxPoint x="190" y="115" as="targetPoint" />
          </mxGeometry>
        </mxCell>
        <mxCell id="77e6c97f196da883-3" value="微服务" style="swimlane;html=1;startSize=20;fillColor=#21C0A5;fontColor=#5C5C5C;strokeColor=#006658;labelBackgroundColor=none;" parent="77e6c97f196da883-1" vertex="1">
          <mxGeometry x="160" y="20" width="160" height="740" as="geometry" />
        </mxCell>
        <mxCell id="4tRq5iD_RLKed55LPY2R-7" value="" style="edgeStyle=orthogonalEdgeStyle;rounded=0;orthogonalLoop=1;jettySize=auto;html=1;labelBackgroundColor=none;strokeColor=#006658;fontColor=default;" edge="1" parent="77e6c97f196da883-3" source="77e6c97f196da883-9" target="4tRq5iD_RLKed55LPY2R-6">
          <mxGeometry relative="1" as="geometry" />
        </mxCell>
        <mxCell id="77e6c97f196da883-9" value="生成排车单号" style="rounded=1;whiteSpace=wrap;html=1;shadow=0;labelBackgroundColor=none;strokeWidth=1;fontFamily=Verdana;fontSize=8;align=center;fillColor=#21C0A5;strokeColor=#006658;fontColor=#5C5C5C;" parent="77e6c97f196da883-3" vertex="1">
          <mxGeometry x="30" y="170" width="100" height="60" as="geometry" />
        </mxCell>
        <mxCell id="4tRq5iD_RLKed55LPY2R-17" value="" style="edgeStyle=orthogonalEdgeStyle;rounded=0;orthogonalLoop=1;jettySize=auto;html=1;labelBackgroundColor=none;strokeColor=#006658;fontColor=default;" edge="1" parent="77e6c97f196da883-3" source="4tRq5iD_RLKed55LPY2R-6" target="4tRq5iD_RLKed55LPY2R-16">
          <mxGeometry relative="1" as="geometry" />
        </mxCell>
        <mxCell id="4tRq5iD_RLKed55LPY2R-6" value="开始运输" style="whiteSpace=wrap;html=1;fontSize=8;fontFamily=Verdana;rounded=1;shadow=0;labelBackgroundColor=none;strokeWidth=1;fillColor=#21C0A5;strokeColor=#006658;fontColor=#5C5C5C;" vertex="1" parent="77e6c97f196da883-3">
          <mxGeometry x="30" y="290" width="100" height="40" as="geometry" />
        </mxCell>
        <mxCell id="4tRq5iD_RLKed55LPY2R-19" value="" style="edgeStyle=orthogonalEdgeStyle;rounded=0;orthogonalLoop=1;jettySize=auto;html=1;labelBackgroundColor=none;strokeColor=#006658;fontColor=default;" edge="1" parent="77e6c97f196da883-3" source="4tRq5iD_RLKed55LPY2R-16" target="4tRq5iD_RLKed55LPY2R-18">
          <mxGeometry relative="1" as="geometry" />
        </mxCell>
        <mxCell id="4tRq5iD_RLKed55LPY2R-16" value="运输确认" style="whiteSpace=wrap;html=1;fontSize=8;fontFamily=Verdana;rounded=1;shadow=0;labelBackgroundColor=none;strokeWidth=1;fillColor=#21C0A5;strokeColor=#006658;fontColor=#5C5C5C;" vertex="1" parent="77e6c97f196da883-3">
          <mxGeometry x="30" y="370" width="100" height="40" as="geometry" />
        </mxCell>
        <mxCell id="4tRq5iD_RLKed55LPY2R-21" value="" style="edgeStyle=orthogonalEdgeStyle;rounded=0;orthogonalLoop=1;jettySize=auto;html=1;labelBackgroundColor=none;strokeColor=#006658;fontColor=default;" edge="1" parent="77e6c97f196da883-3" source="4tRq5iD_RLKed55LPY2R-18" target="4tRq5iD_RLKed55LPY2R-20">
          <mxGeometry relative="1" as="geometry" />
        </mxCell>
        <mxCell id="4tRq5iD_RLKed55LPY2R-18" value="出厂磅单" style="whiteSpace=wrap;html=1;fontSize=8;fontFamily=Verdana;rounded=1;shadow=0;labelBackgroundColor=none;strokeWidth=1;fillColor=#21C0A5;strokeColor=#006658;fontColor=#5C5C5C;" vertex="1" parent="77e6c97f196da883-3">
          <mxGeometry x="30" y="460" width="100" height="40" as="geometry" />
        </mxCell>
        <mxCell id="4tRq5iD_RLKed55LPY2R-23" value="" style="edgeStyle=orthogonalEdgeStyle;rounded=0;orthogonalLoop=1;jettySize=auto;html=1;labelBackgroundColor=none;strokeColor=#006658;fontColor=default;" edge="1" parent="77e6c97f196da883-3" source="4tRq5iD_RLKed55LPY2R-20" target="4tRq5iD_RLKed55LPY2R-22">
          <mxGeometry relative="1" as="geometry" />
        </mxCell>
        <mxCell id="4tRq5iD_RLKed55LPY2R-20" value="到货通知" style="whiteSpace=wrap;html=1;fontSize=8;fontFamily=Verdana;rounded=1;shadow=0;labelBackgroundColor=none;strokeWidth=1;fillColor=#21C0A5;strokeColor=#006658;fontColor=#5C5C5C;" vertex="1" parent="77e6c97f196da883-3">
          <mxGeometry x="30" y="560" width="100" height="40" as="geometry" />
        </mxCell>
        <mxCell id="4tRq5iD_RLKed55LPY2R-22" value="到货确认" style="whiteSpace=wrap;html=1;fontSize=8;fontFamily=Verdana;rounded=1;shadow=0;labelBackgroundColor=none;strokeWidth=1;fillColor=#21C0A5;strokeColor=#006658;fontColor=#5C5C5C;" vertex="1" parent="77e6c97f196da883-3">
          <mxGeometry x="30" y="660" width="100" height="40" as="geometry" />
        </mxCell>
        <mxCell id="77e6c97f196da883-4" value="百度" style="swimlane;html=1;startSize=20;fillColor=#21C0A5;fontColor=#5C5C5C;strokeColor=#006658;labelBackgroundColor=none;" parent="77e6c97f196da883-1" vertex="1">
          <mxGeometry x="320" y="20" width="160" height="740" as="geometry" />
        </mxCell>
        <mxCell id="4tRq5iD_RLKed55LPY2R-4" value="" style="edgeStyle=orthogonalEdgeStyle;rounded=0;orthogonalLoop=1;jettySize=auto;html=1;labelBackgroundColor=none;strokeColor=#006658;fontColor=default;" edge="1" parent="77e6c97f196da883-4" source="4tRq5iD_RLKed55LPY2R-1" target="4tRq5iD_RLKed55LPY2R-3">
          <mxGeometry relative="1" as="geometry" />
        </mxCell>
        <mxCell id="4tRq5iD_RLKed55LPY2R-1" value="判断余量和运输量" style="rounded=1;whiteSpace=wrap;html=1;shadow=0;labelBackgroundColor=none;strokeWidth=1;fontFamily=Verdana;fontSize=8;align=center;fillColor=#21C0A5;strokeColor=#006658;fontColor=#5C5C5C;" vertex="1" parent="77e6c97f196da883-4">
          <mxGeometry x="40" y="65" width="100" height="60" as="geometry" />
        </mxCell>
        <mxCell id="4tRq5iD_RLKed55LPY2R-3" value="开始自动派单" style="rounded=1;whiteSpace=wrap;html=1;shadow=0;labelBackgroundColor=none;strokeWidth=1;fontFamily=Verdana;fontSize=8;align=center;fillColor=#21C0A5;strokeColor=#006658;fontColor=#5C5C5C;" vertex="1" parent="77e6c97f196da883-4">
          <mxGeometry x="40" y="170" width="100" height="60" as="geometry" />
        </mxCell>
        <mxCell id="4tRq5iD_RLKed55LPY2R-69" value="" style="edgeStyle=orthogonalEdgeStyle;rounded=0;orthogonalLoop=1;jettySize=auto;html=1;labelBackgroundColor=none;strokeColor=#006658;fontColor=default;" edge="1" parent="77e6c97f196da883-4" source="4tRq5iD_RLKed55LPY2R-40" target="4tRq5iD_RLKed55LPY2R-68">
          <mxGeometry relative="1" as="geometry" />
        </mxCell>
        <mxCell id="4tRq5iD_RLKed55LPY2R-40" value="第一次过磅" style="rounded=1;whiteSpace=wrap;html=1;labelBackgroundColor=none;fillColor=#21C0A5;strokeColor=#006658;fontColor=#5C5C5C;" vertex="1" parent="77e6c97f196da883-4">
          <mxGeometry x="40" y="420" width="80" height="40" as="geometry" />
        </mxCell>
        <mxCell id="4tRq5iD_RLKed55LPY2R-68" value="第二次过磅" style="rounded=1;whiteSpace=wrap;html=1;labelBackgroundColor=none;fillColor=#21C0A5;strokeColor=#006658;fontColor=#5C5C5C;" vertex="1" parent="77e6c97f196da883-4">
          <mxGeometry x="40" y="490" width="80" height="40" as="geometry" />
        </mxCell>
        <mxCell id="4tRq5iD_RLKed55LPY2R-72" value="第一次过磅" style="rounded=1;whiteSpace=wrap;html=1;labelBackgroundColor=none;fillColor=#21C0A5;strokeColor=#006658;fontColor=#5C5C5C;" vertex="1" parent="77e6c97f196da883-4">
          <mxGeometry x="40" y="610" width="80" height="40" as="geometry" />
        </mxCell>
        <mxCell id="4tRq5iD_RLKed55LPY2R-73" value="第二次过磅" style="rounded=1;whiteSpace=wrap;html=1;labelBackgroundColor=none;fillColor=#21C0A5;strokeColor=#006658;fontColor=#5C5C5C;" vertex="1" parent="77e6c97f196da883-4">
          <mxGeometry x="40" y="680" width="80" height="40" as="geometry" />
        </mxCell>
        <mxCell id="4tRq5iD_RLKed55LPY2R-71" value="" style="edgeStyle=orthogonalEdgeStyle;rounded=0;orthogonalLoop=1;jettySize=auto;html=1;labelBackgroundColor=none;strokeColor=#006658;fontColor=default;" edge="1" parent="77e6c97f196da883-4" source="4tRq5iD_RLKed55LPY2R-72" target="4tRq5iD_RLKed55LPY2R-73">
          <mxGeometry relative="1" as="geometry" />
        </mxCell>
        <mxCell id="4tRq5iD_RLKed55LPY2R-5" value="" style="edgeStyle=orthogonalEdgeStyle;rounded=0;orthogonalLoop=1;jettySize=auto;html=1;labelBackgroundColor=none;strokeColor=#006658;fontColor=default;" edge="1" parent="77e6c97f196da883-1" source="4tRq5iD_RLKed55LPY2R-3" target="77e6c97f196da883-9">
          <mxGeometry relative="1" as="geometry" />
        </mxCell>
        <mxCell id="4tRq5iD_RLKed55LPY2R-25" style="edgeStyle=orthogonalEdgeStyle;rounded=0;orthogonalLoop=1;jettySize=auto;html=1;entryX=1;entryY=0.5;entryDx=0;entryDy=0;labelBackgroundColor=none;strokeColor=#006658;fontColor=default;" edge="1" parent="77e6c97f196da883-1" source="4tRq5iD_RLKed55LPY2R-24" target="4tRq5iD_RLKed55LPY2R-16">
          <mxGeometry relative="1" as="geometry" />
        </mxCell>
        <mxCell id="77e6c97f196da883-6" value="车辆实时位置" style="swimlane;html=1;startSize=20;fillColor=#21C0A5;fontColor=#5C5C5C;strokeColor=#006658;labelBackgroundColor=none;" parent="77e6c97f196da883-1" vertex="1">
          <mxGeometry x="480" y="20" width="160" height="740" as="geometry" />
        </mxCell>
        <mxCell id="4tRq5iD_RLKed55LPY2R-24" value="进入发货地围栏" style="rounded=0;whiteSpace=wrap;html=1;labelBackgroundColor=none;fillColor=#21C0A5;strokeColor=#006658;fontColor=#5C5C5C;" vertex="1" parent="77e6c97f196da883-6">
          <mxGeometry x="40" y="370" width="90" height="40" as="geometry" />
        </mxCell>
        <mxCell id="4tRq5iD_RLKed55LPY2R-38" value="进入卸货地围栏" style="whiteSpace=wrap;html=1;fontSize=8;fontFamily=Verdana;rounded=1;shadow=0;labelBackgroundColor=none;strokeWidth=1;fillColor=#21C0A5;strokeColor=#006658;fontColor=#5C5C5C;" vertex="1" parent="77e6c97f196da883-6">
          <mxGeometry x="35" y="560" width="100" height="40" as="geometry" />
        </mxCell>
        <mxCell id="4tRq5iD_RLKed55LPY2R-39" style="edgeStyle=orthogonalEdgeStyle;rounded=0;orthogonalLoop=1;jettySize=auto;html=1;entryX=1;entryY=0.5;entryDx=0;entryDy=0;labelBackgroundColor=none;strokeColor=#006658;fontColor=default;" edge="1" parent="77e6c97f196da883-1" source="4tRq5iD_RLKed55LPY2R-38" target="4tRq5iD_RLKed55LPY2R-20">
          <mxGeometry relative="1" as="geometry" />
        </mxCell>
        <mxCell id="4tRq5iD_RLKed55LPY2R-70" style="edgeStyle=orthogonalEdgeStyle;rounded=0;orthogonalLoop=1;jettySize=auto;html=1;entryX=0.5;entryY=1;entryDx=0;entryDy=0;labelBackgroundColor=none;strokeColor=#006658;fontColor=default;" edge="1" parent="77e6c97f196da883-1" source="4tRq5iD_RLKed55LPY2R-68" target="4tRq5iD_RLKed55LPY2R-18">
          <mxGeometry relative="1" as="geometry">
            <Array as="points">
              <mxPoint x="240" y="540" />
            </Array>
          </mxGeometry>
        </mxCell>
        <mxCell id="4tRq5iD_RLKed55LPY2R-74" style="edgeStyle=orthogonalEdgeStyle;rounded=0;orthogonalLoop=1;jettySize=auto;html=1;entryX=1;entryY=1;entryDx=0;entryDy=0;labelBackgroundColor=none;strokeColor=#006658;fontColor=default;" edge="1" parent="77e6c97f196da883-1" source="4tRq5iD_RLKed55LPY2R-73" target="4tRq5iD_RLKed55LPY2R-22">
          <mxGeometry relative="1" as="geometry" />
        </mxCell>
      </root>
    </mxGraphModel>
  </diagram>
  <diagram id="gZCsBZw38bVccMUApZg3" name="第 2 页">
    <mxGraphModel dx="2074" dy="1134" grid="1" gridSize="10" guides="1" tooltips="1" connect="1" arrows="1" fold="1" page="1" pageScale="1" pageWidth="827" pageHeight="1169" math="0" shadow="0">
      <root>
        <mxCell id="0" />
        <mxCell id="1" parent="0" />
        <mxCell id="Wg4oBu6kO0SjHE4miGP1-8" value="" style="edgeStyle=orthogonalEdgeStyle;rounded=0;orthogonalLoop=1;jettySize=auto;html=1;labelBackgroundColor=none;strokeColor=#457B9D;fontColor=default;" edge="1" parent="1" source="Wg4oBu6kO0SjHE4miGP1-1" target="Wg4oBu6kO0SjHE4miGP1-7">
          <mxGeometry relative="1" as="geometry" />
        </mxCell>
        <mxCell id="Wg4oBu6kO0SjHE4miGP1-1" value="" style="shape=umlActor;verticalLabelPosition=bottom;verticalAlign=top;html=1;outlineConnect=0;labelBackgroundColor=none;fillColor=#A8DADC;strokeColor=#457B9D;fontColor=#1D3557;" vertex="1" parent="1">
          <mxGeometry x="90" y="150" width="50" height="90" as="geometry" />
        </mxCell>
        <mxCell id="Wg4oBu6kO0SjHE4miGP1-6" value="货主" style="text;html=1;align=center;verticalAlign=middle;resizable=0;points=[];autosize=1;strokeColor=none;fillColor=none;labelBackgroundColor=none;fontColor=#1D3557;" vertex="1" parent="1">
          <mxGeometry x="110" y="260" width="50" height="30" as="geometry" />
        </mxCell>
        <mxCell id="Wg4oBu6kO0SjHE4miGP1-10" value="" style="edgeStyle=orthogonalEdgeStyle;rounded=0;orthogonalLoop=1;jettySize=auto;html=1;labelBackgroundColor=none;strokeColor=#457B9D;fontColor=default;" edge="1" parent="1" source="Wg4oBu6kO0SjHE4miGP1-7" target="Wg4oBu6kO0SjHE4miGP1-9">
          <mxGeometry relative="1" as="geometry" />
        </mxCell>
        <mxCell id="Wg4oBu6kO0SjHE4miGP1-7" value="" style="shape=umlActor;verticalLabelPosition=bottom;verticalAlign=top;html=1;outlineConnect=0;labelBackgroundColor=none;fillColor=#A8DADC;strokeColor=#457B9D;fontColor=#1D3557;" vertex="1" parent="1">
          <mxGeometry x="240" y="150" width="50" height="90" as="geometry" />
        </mxCell>
        <mxCell id="Wg4oBu6kO0SjHE4miGP1-9" value="" style="shape=umlActor;verticalLabelPosition=bottom;verticalAlign=top;html=1;outlineConnect=0;labelBackgroundColor=none;fillColor=#A8DADC;strokeColor=#457B9D;fontColor=#1D3557;" vertex="1" parent="1">
          <mxGeometry x="620" y="150" width="50" height="90" as="geometry" />
        </mxCell>
        <mxCell id="Wg4oBu6kO0SjHE4miGP1-11" value="承运商" style="text;html=1;align=center;verticalAlign=middle;resizable=0;points=[];autosize=1;strokeColor=none;fillColor=none;labelBackgroundColor=none;fontColor=#1D3557;" vertex="1" parent="1">
          <mxGeometry x="235" y="260" width="60" height="30" as="geometry" />
        </mxCell>
        <mxCell id="Wg4oBu6kO0SjHE4miGP1-12" value="司机" style="text;html=1;align=center;verticalAlign=middle;resizable=0;points=[];autosize=1;strokeColor=none;fillColor=none;labelBackgroundColor=none;fontColor=#1D3557;" vertex="1" parent="1">
          <mxGeometry x="364" y="260" width="50" height="30" as="geometry" />
        </mxCell>
        <mxCell id="Wg4oBu6kO0SjHE4miGP1-13" value="大单" style="ellipse;whiteSpace=wrap;html=1;strokeColor=#457B9D;fontColor=#1D3557;fillColor=#A8DADC;" vertex="1" parent="1">
          <mxGeometry x="230" y="300" width="120" height="80" as="geometry" />
        </mxCell>
        <mxCell id="Wg4oBu6kO0SjHE4miGP1-14" value="派车" style="ellipse;whiteSpace=wrap;html=1;strokeColor=#457B9D;fontColor=#1D3557;fillColor=#A8DADC;" vertex="1" parent="1">
          <mxGeometry x="235" y="545" width="120" height="80" as="geometry" />
        </mxCell>
        <mxCell id="Wg4oBu6kO0SjHE4miGP1-15" value="派车" style="ellipse;whiteSpace=wrap;html=1;strokeColor=#457B9D;fontColor=#1D3557;fillColor=#A8DADC;" vertex="1" parent="1">
          <mxGeometry x="75" y="570" width="120" height="80" as="geometry" />
        </mxCell>
        <mxCell id="Wg4oBu6kO0SjHE4miGP1-16" value="派车" style="ellipse;whiteSpace=wrap;html=1;strokeColor=#457B9D;fontColor=#1D3557;fillColor=#A8DADC;" vertex="1" parent="1">
          <mxGeometry x="380" y="560" width="120" height="80" as="geometry" />
        </mxCell>
        <mxCell id="Wg4oBu6kO0SjHE4miGP1-17" value="&lt;table border=&quot;1&quot; width=&quot;100%&quot; height=&quot;100%&quot; cellpadding=&quot;4&quot; style=&quot;width:100%;height:100%;border-collapse:collapse;&quot;&gt;&lt;tbody&gt;&lt;tr&gt;&lt;th align=&quot;center&quot;&gt;派车流程&lt;/th&gt;&lt;/tr&gt;&lt;tr&gt;&lt;td align=&quot;center&quot;&gt;开始运输&amp;nbsp;&lt;br&gt;运输确认&lt;br&gt;出厂磅单&lt;br&gt;到货通知&lt;br&gt;到货确认&lt;/td&gt;&lt;/tr&gt;&lt;tr&gt;&lt;td align=&quot;center&quot;&gt;&lt;br&gt;&lt;/td&gt;&lt;/tr&gt;&lt;/tbody&gt;&lt;/table&gt;" style="text;html=1;whiteSpace=wrap;strokeColor=#B09500;fillColor=#e3c800;overflow=fill;fontColor=#000000;" vertex="1" parent="1">
          <mxGeometry x="550" y="545" width="115" height="240" as="geometry" />
        </mxCell>
        <mxCell id="Wg4oBu6kO0SjHE4miGP1-18" value="" style="curved=1;endArrow=classic;html=1;rounded=0;strokeColor=#457B9D;fontColor=#1D3557;fillColor=#A8DADC;exitX=0.233;exitY=0.958;exitDx=0;exitDy=0;exitPerimeter=0;entryX=0.667;entryY=-0.017;entryDx=0;entryDy=0;entryPerimeter=0;" edge="1" parent="1" source="Wg4oBu6kO0SjHE4miGP1-13" target="Wg4oBu6kO0SjHE4miGP1-14">
          <mxGeometry width="50" height="50" relative="1" as="geometry">
            <mxPoint x="280" y="430" as="sourcePoint" />
            <mxPoint x="330" y="480" as="targetPoint" />
            <Array as="points">
              <mxPoint x="330" y="430" />
            </Array>
          </mxGeometry>
        </mxCell>
        <mxCell id="Wg4oBu6kO0SjHE4miGP1-19" value="" style="curved=1;endArrow=classic;html=1;rounded=0;strokeColor=#457B9D;fontColor=#1D3557;fillColor=#A8DADC;" edge="1" parent="1" source="Wg4oBu6kO0SjHE4miGP1-13" target="Wg4oBu6kO0SjHE4miGP1-16">
          <mxGeometry width="50" height="50" relative="1" as="geometry">
            <mxPoint x="392" y="440" as="sourcePoint" />
            <mxPoint x="340" y="490" as="targetPoint" />
            <Array as="points">
              <mxPoint x="340" y="440" />
            </Array>
          </mxGeometry>
        </mxCell>
        <mxCell id="Wg4oBu6kO0SjHE4miGP1-20" value="" style="curved=1;endArrow=classic;html=1;rounded=0;strokeColor=#457B9D;fontColor=#1D3557;fillColor=#A8DADC;entryX=0.5;entryY=0;entryDx=0;entryDy=0;" edge="1" parent="1" target="Wg4oBu6kO0SjHE4miGP1-15">
          <mxGeometry width="50" height="50" relative="1" as="geometry">
            <mxPoint x="310" y="390" as="sourcePoint" />
            <mxPoint x="310" y="499" as="targetPoint" />
            <Array as="points">
              <mxPoint x="340" y="440" />
            </Array>
          </mxGeometry>
        </mxCell>
      </root>
    </mxGraphModel>
  </diagram>
</mxfile>
